<?xml version="1.0" encoding="utf-8"?>
<!-- Generator: Adobe Illustrator 15.0.0, SVG Export Plug-In . SVG Version: 6.00 Build 0)  -->
<!DOCTYPE svg PUBLIC "-//W3C//DTD SVG 1.1//EN" "http://www.w3.org/Graphics/SVG/1.1/DTD/svg11.dtd">
<svg version="1.1" id="Schrift" xmlns="http://www.w3.org/2000/svg" xmlns:xlink="http://www.w3.org/1999/xlink"
	viewBox="138 245 563 235" xml:space="preserve">
	<path fill="none" d="M128.153,367.985" />
	<g id="XMLID_1_">
		<g>
			<path fill="#ffffff" d="M151.28,357.18c15.74,40.051-22.33,35.311-2.04-2.529L151.28,357.18z" />
		</g>
		<g>
			<path fill="none" stroke="#ffffff" d="M149.24,354.65c-20.29,37.84,17.78,42.58,2.04,2.529" />
			<line fill="none" stroke="#ffffff" x1="151.28" y1="357.18" x2="149.24" y2="354.65" />
		</g>
	</g>
	<path fill="#ffffff" d="M232.707,263.81h4.919c6.621,2.167,9.932,5.662,9.932,10.489c-4.146,0.928-6.219,1.98-6.219,3.154l-3.62-0.371l0.835-1.949
	l-1.021-0.371l-0.743,2.135l-0.928-0.371l-0.371-1.207l-1.393-0.463l1.114,1.578c-14.604,0-29.827,5.972-45.667,17.914l-3.712,5.29
	c0,3.652,18.502,9.964,55.505,18.935c6.744,3.096,12.098,6.932,16.058,11.51v3.248c-13.862,13.492-33.168,22.959-57.919,28.404
	l-17.264,3.154l-1.299-1.113l-3.713,1.113c-16.336,0-27.01-4.918-32.022-14.758v-2.135c1.917-4.207,3.558-6.313,4.919-6.313
	c5.569,5.447,10.92,8.973,16.058,10.582h4.919c26.113,0,47.895-7.021,65.344-21.07v-2.135
	c-27.722-6.621-46.224-11.881-55.505-15.779c-8.23-6.063-12.345-12.374-12.345-18.933c3.402-8.85,17.789-17.636,43.161-26.361
	C218.537,265.202,225.528,263.81,232.707,263.81z" />
	<path fill="#ffffff" d="M279.101,320.224c-0.796-14.253-1.642-43.572-1.642-49.638v-4.827l1.392-1.949h3.527c2.228,0,2.785,26.992,6.126,49.083
	l1.03,5.308 M289.534,318.2c2.744,17.91,3.527,37.872,3.527,42.079c-1.919,3.281-4.27,5.23-7.055,5.848
	c-7.054,0-5.393-27.552-6.906-45.903" />
	<path fill="#ffffff"
		d="M346.932,352.229c-5.627,5.627-22.977,12.506-29.04,12.938c-3.588-0.432-5.848-1.609-6.777-3.527l-0.649-4.363
	c-7.797-30.144,17.987-47.604,46.873-40.469l4.481,3.065c2.696,2.403,0.159,11.692-3.183,20.604l-0.834,6.404
	c0.123,6.125,2.844,11.479,8.167,16.057l0.463,4.734c-2.226,0.311-4.052,0.465-5.476,0.465c-3.773,0-13.851-7.764-13.457-11.324
	 M322.625,352.821l5.012-1.699c17.135-3.672,21.349-20.484,23.205-25.496h-0.742C332.614,323.788,314.337,334.722,322.625,352.821z" />
	<path fill="#ffffff" d="M458.589,318.942h3.807c3.65,0,6.496,1.889,8.539,5.662l1.17,4.339c0,2.848-2.542,10-9.709,17.382
	c-2.629,2.707-0.961,5.662-2.877,5.662h-2.879l-5.662-4.828v-0.834c9.511-9.682,12.928-15.501,8.541-17.729
	c-5.661-2.875-16.152,14.883-16.152,21.813v0.742c0,2.91,1.268,4.795,3.807,5.662h3.805c4.145,0,16.523-2.691,37.129-8.076h1.855
	v1.672c-9.221,7.797-20.945,12.623-35.178,14.479h-6.684c-10.768-1.113-16.15-5.691-16.15-13.736v-3.156
	c0-8.971,13.716-25.315,21.906-28.217C454.989,319.377,458.589,318.942,458.589,318.942z" />
	<path fill="#ffffff" d="M488.485,266.408h3.342c5.072,0,7.611,2.632,7.611,7.891v3.34c-0.742,2.228-2.939,3.341-6.59,3.341
	c-2.354,0-4.889-2.597-7.611-7.795C485.979,268.668,487.062,266.408,488.485,266.408z M488.394,318.851h4.732
	c1.486,0.434,3.031,3.063,4.643,7.889l-0.93,15.688c0,5.197,1.889,10.828,5.662,16.893v2.227l-2.783,3.342h-2.879
	c-7.486,0-11.23-7.486-11.23-22.461v-9.004C485.608,323.708,486.536,318.851,488.394,318.851z" />
	<path fill="#ffffff" d="M505.472,317.735h3.156c3.217,2.662,4.826,5.447,4.826,8.355l-0.836,3.713l0.836,16.613h0.836
	c6.25-14.789,11.848-22.184,16.799-22.184c3.898,0,7.611,8.633,11.139,25.896c2.475,5.568,5.414,8.354,8.818,8.354l3.248-0.928
	l3.156,2.785v3.713c0,2.102-2.939,3.619-8.818,4.547h-3.154c-3.838-1.98-7.303-5.662-10.396-11.045
	c-1.855-3.527-3.744-9.684-5.662-18.471c-0.805,0-2.66,3.373-5.568,10.117c-6.375,10.457-11.172,15.686-14.387,15.686
	c-3.838,0-5.973-5.537-6.406-16.613v-27.754L505.472,317.735z" />
	<path fill="#ffffff" d="M569.425,276.619c3.65,0,6.775,2.845,9.373,8.539c0,7.18-2.506,15.006-7.518,23.482
	c-3.713,17.141-5.568,28.527-5.568,34.158l0.928,5.383h0.928c4.766,0,20.605-14.232,47.523-42.697l4.641-1.113l1.857,3.248
	c0,5.633-5.291,13.459-15.873,23.484l-10.209,12.809c0,7.797,2.475,11.695,7.424,11.695h3.713c3.219,0,10.057-2.846,20.514-8.539
	l1.855,3.248v2.135c-2.846,7.551-8.725,12.871-17.635,15.965l-4.734,1.021c-10.271,0-17.387-4.951-21.348-14.852h-1.855
	c-6.746,5.695-12.037,8.539-15.873,8.539c-8.662,0-12.994-7.113-12.994-21.348c0-12.994,4.332-34.344,12.994-64.044l0.928-1.113
	H569.425z" />
	<g>
		<g>
			<path fill="#ffffff" d="M414.169,394.286c48.958,2.554,98.169,3.493,147.102-0.088c30.324-2.22,61.321-5.863,90.322-15.418
			c15.683-5.166,32.968-12.585,42.723-26.621c7.112-10.235,6.413-22.793,0.488-33.366c-7.521-13.422-21.166-23.132-34.156-30.732
			c-18.786-10.991-39.591-18.608-60.494-24.443c-55.264-15.427-114.395-18.311-171.157-10.887
			c-59.093,7.729-116.494,27.48-166.78,59.668c-4.87,3.118-0.361,10.91,4.543,7.771c56.463-36.143,121.865-56.268,188.568-61.114
			c54.563-3.964,111.007,1.492,162.813,19.624c18.255,6.39,36.322,14.609,51.821,26.319c4.652,3.515,11.216,9.816,14.3,14.041
			c1.749,2.396,3.265,4.963,4.472,7.673c0.467,1.048-0.363-0.901,0.059,0.153c0.121,0.305,0.233,0.612,0.346,0.921
			c0.221,0.605,0.413,1.221,0.594,1.839c0.179,0.605,0.326,1.22,0.463,1.836c0.088,0.397,0.421,2.64,0.247,1.243
			c0.686,5.504-0.33,8.975-2.797,13.191c-2.848,4.867-7.931,9.267-13.087,12.619c-18.72,12.173-42.16,17.078-63.812,20.851
			c-27.018,4.707-54.515,6.601-81.894,7.55c-38.219,1.325-76.506,0.361-114.683-1.631
			C408.367,384.983,408.396,393.985,414.169,394.286L414.169,394.286z" />
		</g>
	</g>
	<g>
		<g>
			<path fill="#ffffff" d="M412.339,385.286c-15.996,0.417-32.231,1.832-47.729,6.001c-10.242,2.755-20.355,6.872-28.577,13.704
			c-5.627,4.677-10.108,11.127-11.594,18.369c-1.459,7.113-0.219,14.137,2.636,20.728c2.707,6.25,7.115,11.847,12.118,16.425
			c5.57,5.099,11.996,9.051,19.021,11.795c6.429,2.511,13.593,3.788,20.49,3.12c7.83-0.759,14.969-3.753,20.944-8.886
			c6.935-5.956,11.352-14.423,14.181-22.983c4.088-12.37,5.034-25.778,4.846-38.726c-0.049-3.352-0.193-6.7-0.405-10.045
			c-0.155-2.447-1.93-4.5-4.5-4.5c-2.335,0-4.655,2.05-4.5,4.5c0.487,7.676,0.6,15.383,0.104,23.062
			c-0.108,1.676-0.25,3.35-0.422,5.021c-0.08,0.77-0.168,1.539-0.262,2.308c-0.046,0.376-0.095,0.753-0.145,1.129
			c0.24-1.81,0.016-0.145-0.047,0.284c-0.423,2.893-0.97,5.768-1.655,8.609c-0.614,2.547-1.354,5.064-2.23,7.534
			c-0.197,0.554-0.403,1.104-0.615,1.653c-0.104,0.269-0.21,0.537-0.318,0.805c-0.163,0.405-0.705,1.679,0.018-0.025
			c-0.447,1.054-0.929,2.093-1.44,3.117c-0.951,1.902-2.024,3.744-3.221,5.503c-0.271,0.398-0.551,0.791-0.835,1.18
			c-0.14,0.191-0.283,0.381-0.426,0.569c-0.38,0.501,0.801-1.033,0.417-0.538c-0.096,0.123-0.193,0.245-0.29,0.367
			c-0.593,0.743-1.217,1.463-1.864,2.16c-1.228,1.322-2.561,2.548-3.981,3.661c-0.273,0.213,1.165-0.886,0.329-0.26
			c-0.167,0.125-0.334,0.247-0.503,0.368c-0.362,0.26-0.731,0.511-1.104,0.756c-0.706,0.463-1.432,0.895-2.172,1.299
			c-0.728,0.397-1.473,0.763-2.23,1.101c-0.394,0.176-1.287,0.545,0.441-0.181c-0.181,0.076-0.364,0.149-0.546,0.223
			c-0.395,0.156-0.793,0.304-1.194,0.443c-1.528,0.537-3.101,0.946-4.692,1.245c-0.381,0.071-0.763,0.135-1.146,0.192
			c-1.028,0.156,0.915-0.117,0.525-0.066c-0.224,0.029-0.449,0.056-0.674,0.081c-0.804,0.089-1.611,0.146-2.418,0.18
			c-1.626,0.068-3.257,0.019-4.878-0.123c-0.392-0.035-0.783-0.076-1.173-0.122c-0.443-0.052-1.414-0.185,0.512,0.073
			c-0.229-0.03-0.457-0.063-0.685-0.099c-0.817-0.123-1.63-0.273-2.439-0.444c-1.633-0.344-3.246-0.785-4.833-1.303
			c-0.8-0.262-1.593-0.546-2.379-0.848c-0.379-0.146-0.755-0.297-1.13-0.451c-0.906-0.372,1.167,0.498,0.419,0.179
			c-0.218-0.094-0.436-0.189-0.652-0.285c-1.555-0.69-3.075-1.46-4.558-2.294c-1.487-0.837-2.933-1.746-4.336-2.715
			c-0.701-0.483-1.39-0.985-2.068-1.5c-0.777-0.59,0.982,0.764,0.345,0.268c-0.161-0.126-0.32-0.252-0.48-0.38
			c-0.345-0.274-0.686-0.555-1.023-0.838c-2.564-2.146-4.932-4.532-7.044-7.126c-0.315-0.387-1.317-1.681-0.09-0.092
			c-0.259-0.336-0.513-0.676-0.763-1.019c-0.477-0.652-0.934-1.319-1.375-1.997c-0.866-1.329-1.656-2.708-2.364-4.128
			c-0.167-0.335-0.329-0.674-0.486-1.014c-0.217-0.468-0.871-2.016-0.071-0.117c-0.298-0.707-0.571-1.425-0.822-2.15
			c-0.493-1.425-0.886-2.885-1.172-4.364c-0.068-0.352-0.128-0.704-0.183-1.057c-0.068-0.44-0.187-1.357,0.072,0.579
			c-0.027-0.206-0.052-0.412-0.075-0.618c-0.082-0.733-0.131-1.471-0.153-2.209c-0.022-0.736-0.01-1.474,0.03-2.209
			c0.02-0.354,0.048-0.707,0.082-1.059c0.017-0.177,0.037-0.353,0.057-0.529c0.11-0.935-0.203,1.425-0.066,0.492
			c0.217-1.483,0.576-2.944,1.055-4.364c0.117-0.348,0.245-0.692,0.377-1.035c0.067-0.173,0.137-0.345,0.207-0.516
			c0.221-0.536-0.538,1.266-0.309,0.732c0.049-0.114,0.1-0.229,0.15-0.342c0.323-0.723,0.683-1.429,1.069-2.12
			c0.399-0.714,0.834-1.407,1.295-2.084c0.227-0.334,0.463-0.662,0.704-0.986c0.617-0.832-0.485,0.619-0.268,0.34
			c0.149-0.19,0.301-0.38,0.455-0.567c1.156-1.414,2.44-2.721,3.803-3.936c0.348-0.311,0.703-0.613,1.062-0.912
			c0.183-0.151,0.368-0.301,0.553-0.45c0.094-0.075,0.188-0.149,0.282-0.224c0.669-0.527-0.941,0.722-0.432,0.332
			c0.829-0.635,1.683-1.237,2.552-1.815c1.897-1.263,3.883-2.389,5.917-3.415c1.111-0.561,2.24-1.086,3.379-1.587
			c0.284-0.125,0.569-0.247,0.854-0.368c-1.644,0.699-0.441,0.188-0.058,0.03c0.647-0.264,1.298-0.519,1.951-0.767
			c2.71-1.028,5.472-1.915,8.261-2.704c6.652-1.881,13.468-3.159,20.314-4.097c0.895-0.123-1.173,0.155-0.274,0.037
			c0.232-0.031,0.465-0.061,0.698-0.091c0.47-0.061,0.939-0.118,1.41-0.176c1.04-0.126,2.082-0.242,3.123-0.354
			c2.087-0.223,4.178-0.411,6.271-0.577c4.529-0.359,9.068-0.59,13.609-0.729c0.48-0.015,0.96-0.027,1.441-0.04
			c2.452-0.063,4.5-1.999,4.5-4.5C416.839,387.382,414.792,385.223,412.339,385.286L412.339,385.286z" />
		</g>
	</g>
	<path fill="#ffffff" d="M409.563,352.338c-5.627,5.627-21.734,11.259-27.796,11.69c-3.588-0.432-5.848-1.609-6.777-3.527l-0.649-4.363
	c-6.98-29.737,21.833-45.669,45.377-40.198l4.482,3.065c2.695,2.403,0.158,11.692-3.184,20.604l-0.834,6.404
	c0.123,6.125,0.572,15.434,0.572,21.005l-0.327,6.758c0.555,21.895-4.903,15.072-9.337,14.845
	c-4.203-0.216-1.603-29.115-1.21-32.676 M385.003,351.953c0.854,1.011,6.933-0.298,6.933-0.298
	c16.102-4.915,24.746-24.915,21.283-26.897h-0.742C395.833,323.011,376.512,341.915,385.003,351.953z" />
</svg>